<?xml version="1.0" standalone="no"?>
<!DOCTYPE svg PUBLIC "-//W3C//DTD SVG 20010904//EN"
 "http://www.w3.org/TR/2001/REC-SVG-20010904/DTD/svg10.dtd">
<svg version="1.0" xmlns="http://www.w3.org/2000/svg"
 width="609.000000pt" height="900.000000pt" viewBox="0 0 609.000000 900.000000"
 preserveAspectRatio="xMidYMid meet">

<g transform="translate(0.000000,900.000000) scale(0.100000,-0.100000)"
fill="#000000" stroke="none">
<path d="M2810 7005 c-10 -13 -10 -19 3 -33 23 -25 40 -194 21 -205 -8 -4 -14
-17 -14 -29 0 -19 4 -20 78 -14 42 4 89 12 104 18 87 33 90 207 5 258 -41 26
-177 29 -197 5z m169 -59 c7 -8 15 -39 18 -69 5 -47 2 -58 -16 -76 -11 -11
-32 -21 -46 -21 -23 0 -25 3 -25 53 0 28 -3 69 -6 90 -7 37 -7 37 28 37 20 0
41 -6 47 -14z"/>
<path d="M3210 7006 c0 -9 7 -19 16 -23 24 -9 9 -180 -19 -211 -12 -13 -17
-26 -11 -30 13 -12 199 -33 219 -26 24 10 17 78 -9 82 -10 2 -23 -3 -28 -12
-11 -20 -76 -22 -84 -3 -2 7 -1 24 4 37 8 21 14 24 51 21 41 -3 42 -2 39 26
-3 24 -8 28 -40 31 -26 2 -39 9 -43 22 -9 30 2 40 46 40 28 0 39 -4 39 -15 0
-21 27 -30 45 -15 8 7 15 25 15 40 0 34 -12 38 -142 47 -88 5 -98 4 -98 -11z"/>
<path d="M2289 6898 c-13 -10 -18 -39 -22 -136 -4 -68 -11 -130 -17 -137 -7
-9 -6 -16 4 -24 22 -19 100 4 93 27 -19 60 -20 58 19 70 46 14 54 9 54 -29 0
-34 19 -38 69 -13 34 17 34 17 -8 66 -17 18 -54 67 -83 108 -55 76 -80 92
-109 68z m81 -139 c0 -5 -9 -9 -20 -9 -16 0 -20 7 -20 33 l1 32 19 -24 c11
-13 20 -27 20 -32z"/>
<path d="M3865 6896 c-98 -44 -129 -188 -56 -256 43 -40 137 -54 162 -24 13
15 39 80 39 97 0 9 -63 37 -84 37 -21 0 -28 -31 -11 -50 23 -26 18 -40 -15
-40 -46 0 -74 33 -67 82 10 78 66 125 115 97 14 -8 29 -25 32 -39 8 -35 42
-33 54 2 8 22 6 32 -10 49 -41 45 -113 66 -159 45z"/>
<path d="M1972 6788 c-37 -18 -42 -24 -42 -54 0 -18 5 -56 11 -83 20 -96 12
-98 -69 -19 l-72 71 -45 -23 c-47 -24 -58 -48 -26 -57 27 -7 103 -157 95 -188
-10 -39 3 -46 44 -28 20 10 45 23 54 31 20 17 13 42 -12 42 -11 0 -26 16 -39
41 -25 47 -22 59 7 32 10 -10 37 -36 60 -57 36 -35 43 -38 58 -25 14 11 15 25
11 79 -4 36 -8 74 -10 85 -2 11 -2 14 0 8 3 -7 8 -13 12 -13 12 0 33 -69 27
-88 -3 -9 -2 -23 3 -31 7 -11 17 -9 57 10 55 27 69 55 32 64 -33 8 -102 145
-93 185 8 37 -10 42 -63 18z"/>
<path d="M4187 6784 c-3 -4 -2 -15 4 -26 14 -27 -60 -183 -90 -191 -42 -11
-20 -35 74 -81 52 -25 99 -46 103 -46 10 0 32 45 32 64 0 19 -28 28 -49 17
-21 -12 -64 7 -69 29 -1 9 4 24 12 35 13 18 16 19 48 4 39 -19 58 -15 58 12 0
12 -13 25 -35 36 -38 18 -42 28 -21 56 13 17 16 17 45 2 18 -9 31 -23 31 -34
0 -17 18 -31 39 -31 9 0 31 45 31 64 0 7 -39 31 -87 54 -86 41 -113 49 -126
36z"/>
<path d="M4526 6565 c-38 -36 -34 -86 14 -140 23 -26 32 -57 21 -74 -8 -12
-14 -12 -39 -2 -35 15 -45 32 -36 66 8 31 -33 47 -53 19 -29 -40 -11 -83 55
-125 56 -35 81 -36 116 -4 41 38 39 69 -11 143 -29 43 -33 55 -23 67 7 8 18
15 24 15 20 0 59 -48 53 -64 -4 -9 1 -23 10 -31 14 -15 17 -14 34 1 25 22 24
49 -3 86 -21 30 -87 67 -119 68 -9 0 -28 -11 -43 -25z"/>
<path d="M1472 6502 c-61 -42 -82 -62 -80 -76 2 -11 12 -20 23 -22 11 -2 25
-11 32 -21 7 -10 16 -23 21 -29 34 -39 66 -101 64 -120 -5 -40 18 -37 86 10
124 86 118 78 96 115 -10 17 -24 31 -30 31 -16 0 -37 -27 -30 -39 7 -10 -40
-51 -59 -51 -6 0 -18 11 -25 25 -13 24 -11 27 20 54 24 19 32 33 27 45 -8 19
-40 14 -68 -10 -22 -19 -32 -18 -48 8 -12 19 -11 23 14 42 15 11 41 20 58 20
17 1 32 6 34 12 4 11 -34 64 -45 64 -4 -1 -44 -27 -90 -58z"/>
<path d="M4829 6384 c-18 -20 -21 -28 -13 -42 6 -9 22 -17 35 -17 18 0 24 -6
24 -21 0 -28 -98 -134 -124 -134 -36 0 -34 -22 6 -62 43 -42 78 -45 68 -4 -8
30 111 162 131 145 8 -6 14 -22 14 -35 0 -32 35 -32 62 -1 l20 22 -74 68 c-40
37 -85 76 -99 87 l-26 19 -24 -25z"/>
<path d="M1166 6249 c-47 -45 -86 -87 -86 -93 0 -7 11 -23 25 -36 20 -19 27
-21 40 -10 8 7 13 21 10 30 -3 9 2 23 10 30 14 12 24 5 75 -51 36 -38 60 -73
60 -87 0 -39 28 -38 70 3 41 40 43 65 6 65 -15 0 -45 23 -85 65 -52 54 -61 68
-51 80 8 9 21 13 36 9 35 -9 43 21 14 52 -13 13 -27 24 -30 24 -4 0 -46 -36
-94 -81z"/>
<path d="M5137 6123 c-4 -3 -7 -17 -7 -29 0 -13 -8 -29 -19 -36 -10 -7 -41
-34 -69 -60 -35 -31 -58 -45 -71 -41 -10 2 -22 0 -26 -7 -8 -13 37 -75 66 -90
17 -10 20 -7 25 20 7 34 122 144 152 146 36 2 42 4 42 17 0 12 -70 87 -81 87
-3 0 -9 -3 -12 -7z"/>
<path d="M943 5998 c-34 -24 -73 -85 -73 -113 0 -9 9 -30 21 -46 27 -39 64
-38 139 4 64 35 88 30 77 -15 -8 -31 -52 -57 -69 -40 -14 14 -38 -2 -38 -26 0
-19 29 -41 54 -42 26 0 83 45 101 80 21 40 19 72 -6 104 -28 35 -68 34 -136
-5 -50 -29 -56 -30 -71 -15 -15 14 -14 18 5 43 16 22 28 27 52 25 39 -3 51 20
26 48 -23 26 -43 25 -82 -2z"/>
<path d="M3000 5917 c-30 -5 -107 -9 -170 -8 -115 1 -203 -10 -250 -32 -14 -6
-68 -47 -120 -90 -72 -59 -100 -76 -115 -71 -11 3 -40 9 -65 13 -25 5 -52 10
-60 12 -22 6 -25 -52 -5 -90 18 -35 45 -41 45 -11 0 11 4 20 8 20 14 0 -3 -94
-23 -123 -23 -36 -87 -69 -128 -67 -54 3 -57 1 -57 -33 0 -37 43 -107 65 -107
9 0 23 -9 32 -20 10 -11 23 -20 30 -20 6 0 14 -9 18 -19 17 -54 112 -66 161
-20 31 29 40 20 13 -14 -24 -32 -18 -47 20 -47 15 0 36 -7 47 -15 35 -26 69
-18 113 27 23 22 41 47 41 54 0 7 5 16 11 20 21 12 0 -48 -31 -94 -17 -23 -30
-44 -30 -46 0 -2 12 -7 26 -10 20 -5 24 -10 15 -19 -6 -6 -11 -25 -11 -43 0
-35 -24 -109 -42 -132 -9 -11 -48 -107 -48 -119 0 -10 59 -1 76 12 10 8 27 15
36 15 24 0 38 31 38 80 0 22 7 52 16 66 14 21 15 31 5 64 -6 22 -21 46 -32 54
-11 8 -16 17 -11 20 6 3 14 25 18 49 l8 42 7 -45 c4 -25 12 -63 19 -85 26 -91
29 -119 14 -149 -8 -16 -14 -37 -14 -47 0 -10 -4 -21 -10 -24 -5 -3 -10 -17
-10 -31 0 -31 20 -31 82 -2 48 23 62 46 52 85 -3 11 3 38 14 59 10 22 27 64
37 94 10 30 29 67 43 82 48 52 76 172 51 219 -19 37 -3 43 19 7 26 -42 27 -75
3 -148 -10 -30 -17 -58 -14 -62 16 -28 117 20 162 78 17 22 21 23 21 9 0 -10
-11 -33 -25 -51 -14 -18 -25 -38 -25 -45 0 -17 296 -4 375 17 33 9 71 18 85
21 57 11 135 59 165 100 36 50 47 54 35 13 -8 -29 -7 -30 13 -24 11 4 27 13
35 20 14 14 22 18 22 9 0 -3 -16 -23 -36 -45 -35 -39 -36 -42 -23 -68 14 -27
79 -95 137 -143 30 -25 32 -31 32 -88 0 -49 -4 -66 -22 -87 -24 -27 -40 -69
-30 -78 3 -3 22 -6 42 -6 37 0 70 23 70 49 0 7 5 9 11 5 16 -9 29 15 29 56 0
19 7 46 15 60 21 36 18 79 -7 126 l-21 41 30 99 c46 148 56 212 46 317 -4 51
-8 96 -8 102 0 5 9 11 20 13 57 11 86 86 44 116 -24 16 -49 11 -49 -10 0 -7 6
-11 14 -8 20 8 28 -23 10 -41 -9 -8 -17 -15 -20 -15 -2 0 -23 19 -47 43 -24
23 -57 49 -73 57 -16 8 -45 24 -64 36 -19 11 -62 31 -94 43 -53 20 -65 21
-108 11 -35 -9 -61 -9 -95 -1 -133 30 -482 41 -603 18z m-482 -368 c27 -53 27
-65 2 -107 -24 -39 -45 -49 -65 -32 -13 11 -11 15 11 32 32 26 50 68 32 79 -7
4 -18 3 -26 -3 -11 -9 -12 -7 -7 14 8 32 -32 76 -76 85 -27 5 -37 21 -23 36 4
3 34 -9 68 -27 47 -26 66 -43 84 -77z m399 -121 c-3 -8 -6 -5 -6 6 -1 11 2 17
5 13 3 -3 4 -12 1 -19z m830 -70 c-3 -8 -6 -5 -6 6 -1 11 2 17 5 13 3 -3 4
-12 1 -19z"/>
<path d="M5208 5842 c-49 -36 -68 -71 -68 -125 0 -85 78 -141 163 -117 50 14
78 35 106 81 22 35 28 103 11 114 -23 14 -7 22 27 14 44 -9 48 -7 34 19 -12
23 -58 37 -74 23 -8 -6 -21 -5 -37 4 -43 24 -120 18 -162 -13z m150 -44 c22
-22 14 -72 -15 -100 -57 -53 -94 -60 -130 -26 -33 31 -29 56 17 100 33 30 49
38 78 38 21 0 43 -5 50 -12z"/>
<path d="M717 5691 c-29 -52 -25 -66 15 -56 31 7 178 -87 178 -114 0 -40 29
-31 60 20 33 54 31 74 -6 65 -31 -8 -171 79 -179 111 -9 38 -38 27 -68 -26z"/>
<path d="M5530 5551 c0 -26 -160 -104 -194 -95 -34 8 -39 -8 -16 -59 25 -57
45 -65 64 -28 13 25 90 71 101 60 2 -3 -18 -38 -45 -79 -52 -78 -58 -98 -38
-118 18 -18 31 -15 129 32 68 34 99 44 120 39 36 -7 38 9 7 72 -24 50 -44 58
-54 21 -5 -23 -88 -76 -100 -64 -3 3 15 38 40 77 49 76 53 92 34 134 -15 31
-48 37 -48 8z"/>
<path d="M591 5453 c-55 -66 -50 -148 9 -173 34 -14 69 1 114 49 20 20 39 31
58 31 31 0 35 -14 16 -55 -11 -26 -17 -28 -54 -26 -40 4 -41 -52 -2 -62 45
-12 92 28 116 101 15 45 -2 90 -41 107 -38 16 -65 6 -124 -47 -45 -40 -73 -42
-73 -3 0 27 29 55 57 55 28 0 39 31 17 47 -31 23 -61 15 -93 -24z"/>
<path d="M3608 5193 c-32 -15 -58 -32 -58 -39 0 -7 18 -28 41 -46 22 -18 52
-42 67 -54 22 -18 25 -28 25 -82 0 -50 -4 -67 -21 -85 -12 -13 -22 -31 -22
-40 0 -9 -5 -19 -10 -22 -19 -12 1 -25 39 -25 29 0 44 7 64 30 15 17 32 30 37
30 6 0 10 16 10 36 0 19 11 60 25 90 14 30 25 60 25 67 0 7 -23 34 -51 62 -28
27 -58 62 -67 77 -20 34 -30 34 -104 1z"/>
<path d="M13 4834 c-3 -9 0 -20 8 -25 18 -11 1879 -11 1898 0 8 5 11 16 8 25
-6 15 -95 16 -957 16 -862 0 -951 -1 -957 -16z"/>
<path d="M4274 4838 c-23 -37 1 -38 923 -38 l893 0 0 25 0 25 -904 0 c-672 0
-907 -3 -912 -12z"/>
<path d="M2652 4473 c-9 -16 -23 -78 -53 -218 -4 -22 -13 -60 -19 -85 -5 -25
-14 -65 -19 -90 -5 -25 -21 -99 -35 -165 -15 -66 -31 -140 -36 -165 -5 -25
-18 -84 -28 -132 -11 -48 -16 -92 -12 -98 4 -7 36 -10 85 -8 l78 3 13 50 c7
28 13 62 14 77 0 56 4 58 116 58 75 0 106 -4 108 -12 2 -7 9 -44 16 -83 7 -38
15 -76 18 -82 6 -19 172 -18 172 0 0 7 -14 76 -31 153 -16 76 -35 162 -41 189
-5 28 -14 66 -18 85 -35 157 -71 323 -89 415 -6 28 -14 66 -19 85 l-8 35 -101
3 c-89 2 -103 0 -111 -15z m143 -433 c10 -58 21 -121 26 -140 5 -19 5 -38 0
-43 -4 -4 -35 -7 -67 -5 -69 4 -73 11 -55 97 16 73 27 131 42 214 l13 68 12
-43 c6 -24 19 -90 29 -148z"/>
<path d="M3267 4483 c-4 -3 -7 -224 -7 -490 l0 -484 83 3 82 3 3 158 3 157 82
0 c107 0 169 20 205 68 l27 35 0 231 c0 223 -1 232 -22 262 -41 57 -71 64
-270 64 -99 0 -183 -3 -186 -7z m303 -189 c6 -14 10 -76 10 -137 0 -145 -7
-157 -91 -157 l-59 0 0 160 0 160 65 0 c61 0 66 -2 75 -26z"/>
<path d="M1986 3091 c-8 -12 3 -41 15 -41 5 0 9 -45 9 -99 0 -79 -3 -100 -15
-105 -26 -10 -16 -34 16 -41 42 -10 99 2 99 21 0 8 -7 17 -15 20 -9 4 -15 19
-15 35 0 28 2 29 46 29 106 0 146 128 54 175 -32 17 -185 21 -194 6z m172 -79
c5 -32 -15 -52 -49 -52 -27 0 -29 3 -29 41 l0 40 38 -3 c30 -2 38 -7 40 -26z"/>
<path d="M2373 3074 c-22 -16 -38 -42 -49 -77 -15 -49 -15 -55 3 -102 31 -82
99 -114 177 -81 99 41 104 221 7 271 -46 23 -101 19 -138 -11z m124 -53 c33
-46 20 -145 -23 -161 -65 -25 -105 45 -80 143 11 46 74 57 103 18z"/>
<path d="M2673 3085 c-3 -9 2 -22 12 -29 27 -19 30 -182 3 -205 -10 -8 -18
-21 -18 -27 0 -15 63 -27 101 -19 31 7 39 32 14 41 -19 8 -20 63 -2 70 8 3 26
0 40 -5 22 -9 27 -17 27 -44 0 -42 15 -57 57 -57 32 0 46 21 24 35 -5 3 -13
20 -17 37 -3 18 -11 40 -18 50 -8 13 -7 21 2 30 6 6 12 28 12 47 -1 67 -40 91
-150 91 -64 0 -82 -3 -87 -15z m168 -61 c19 -23 -1 -49 -37 -49 -25 0 -29 4
-32 33 -3 30 -1 32 26 32 16 0 35 -7 43 -16z"/>
<path d="M3089 3085 c-46 -25 -64 -63 -64 -135 0 -48 6 -73 20 -94 38 -57 127
-73 186 -33 37 25 47 50 29 72 -18 22 -39 18 -49 -9 -17 -42 -60 -48 -96 -11
-20 20 -25 34 -25 78 0 71 24 95 93 89 10 -1 22 -13 27 -27 11 -28 31 -32 49
-11 17 20 -3 62 -38 81 -37 19 -97 19 -132 0z"/>
<path d="M3357 3093 c-11 -10 -8 -20 11 -39 26 -27 27 -180 1 -202 -10 -9 -19
-20 -19 -24 0 -16 54 -29 92 -23 39 7 52 30 23 41 -23 9 -22 199 2 212 10 6
14 16 10 26 -5 12 -20 16 -60 16 -30 0 -57 -3 -60 -7z"/>
<path d="M3570 3081 c0 -11 5 -23 10 -26 14 -9 13 -198 -1 -212 -20 -20 -3
-39 36 -41 67 -5 96 18 60 48 -16 14 -22 110 -6 110 5 0 22 -24 39 -52 16 -29
38 -63 48 -76 22 -26 60 -36 71 -19 4 7 8 61 9 121 1 62 7 113 13 119 6 6 11
19 11 29 0 15 -9 18 -55 18 -62 0 -80 -17 -51 -49 16 -18 23 -111 8 -111 -4 0
-29 36 -56 80 l-48 80 -44 0 c-37 0 -44 -3 -44 -19z"/>
<path d="M4057 3092 c-3 -4 -22 -57 -42 -118 -20 -60 -43 -116 -51 -125 -22
-24 -17 -36 17 -43 60 -12 97 12 67 42 -19 19 4 34 48 30 37 -3 39 -5 36 -34
-3 -37 14 -48 64 -38 35 6 43 21 22 42 -7 7 -31 66 -54 130 -39 113 -41 117
-71 120 -17 2 -34 -1 -36 -6z m53 -138 c0 -17 -20 -28 -30 -18 -5 5 -6 22 -3
38 6 27 7 28 19 11 8 -10 14 -24 14 -31z"/>
<path d="M737 2963 c-4 -3 -7 -12 -7 -20 0 -10 47 -13 245 -13 238 0 245 1
245 20 0 19 -7 20 -238 20 -131 0 -242 -3 -245 -7z"/>
<path d="M4990 2950 c0 -20 6 -20 246 -20 228 0 245 1 242 18 -3 16 -24 17
-246 20 -237 2 -242 2 -242 -18z"/>
<path d="M2507 2326 c-3 -8 -3 -17 0 -20 4 -3 273 -6 600 -6 586 0 593 0 593
20 0 20 -7 20 -594 20 -500 0 -595 -2 -599 -14z"/>
</g>
</svg>
