<?xml version="1.0" standalone="no"?>
<!DOCTYPE svg PUBLIC "-//W3C//DTD SVG 20010904//EN"
 "http://www.w3.org/TR/2001/REC-SVG-20010904/DTD/svg10.dtd">
<svg version="1.0" xmlns="http://www.w3.org/2000/svg"
 width="277.000000pt" height="180.000000pt" viewBox="0 0 277.000000 180.000000"
 preserveAspectRatio="xMidYMid meet">

<g transform="translate(0.000000,180.000000) scale(0.100000,-0.100000)"
fill="#000000" stroke="none">
<path d="M293 1720 c0 -36 2 -50 4 -32 2 17 2 47 0 65 -2 17 -4 3 -4 -33z"/>
<path d="M751 1484 c0 -11 3 -14 6 -6 3 7 2 16 -1 19 -3 4 -6 -2 -5 -13z"/>
<path d="M1896 1452 c-3 -6 -1 -23 5 -39 6 -15 10 -29 10 -30 -6 -20 4 -24 42
-18 42 7 102 33 95 41 -3 2 -29 12 -59 23 -30 10 -61 21 -70 25 -10 4 -20 3
-23 -2z"/>
<path d="M2691 1424 c-19 -8 -57 -17 -83 -19 -58 -6 -99 -25 -127 -61 -22 -28
-28 -78 -11 -89 6 -4 8 -10 5 -15 -3 -5 -1 -19 5 -30 13 -24 -7 -50 -38 -53
-14 -1 -18 -7 -14 -21 3 -12 1 -17 -5 -13 -6 4 -17 -3 -25 -16 -13 -19 -13
-24 1 -38 9 -9 26 -20 38 -23 13 -4 22 -13 20 -19 -1 -7 4 -11 11 -9 6 1 12
-2 12 -8 0 -5 -5 -10 -11 -10 -6 0 -9 -7 -5 -15 3 -8 -2 -19 -12 -24 -9 -6
-12 -11 -6 -11 16 0 4 -50 -12 -50 -16 0 -19 -16 -4 -25 6 -4 8 -11 4 -16 -4
-6 -10 -6 -18 0 -16 14 -26 4 -26 -26 0 -27 1 -27 -50 -7 -30 12 -56 15 -101
10 -32 -4 -59 -3 -58 1 4 25 -2 53 -11 48 -5 -3 -10 3 -10 14 0 12 -4 21 -10
21 -5 0 -9 22 -9 49 1 41 5 51 24 59 13 6 28 27 35 49 7 21 19 42 27 47 12 7
11 10 -8 20 -17 9 -26 9 -31 2 -5 -7 -8 -7 -8 2 0 6 -7 12 -16 12 -8 0 -12 5
-9 10 3 6 -3 10 -14 10 -16 0 -20 6 -18 23 1 12 4 24 7 27 13 13 30 52 30 68
0 22 -53 76 -64 65 -4 -4 -11 -1 -16 6 -7 12 -15 12 -52 -2 -23 -9 -63 -21
-88 -27 -92 -24 -150 -86 -150 -164 0 -24 6 -38 19 -45 19 -11 35 -61 19 -61
-5 0 -6 -4 -3 -10 3 -5 -6 -12 -20 -16 -21 -5 -25 -12 -25 -40 0 -35 16 -44
37 -23 9 9 14 1 23 -29 14 -54 21 -182 9 -182 -5 0 -9 -14 -9 -30 0 -18 -6
-33 -15 -36 -8 -4 -15 -18 -16 -33 -1 -25 -1 -24 -10 6 -22 75 -105 95 -177
43 l-42 -30 0 25 c0 27 -18 32 -50 15 -18 -10 -19 -8 -13 20 5 26 2 32 -16 37
-12 3 -21 13 -21 24 0 11 -5 19 -11 19 -5 0 -8 4 -5 9 4 5 0 11 -6 14 -9 3 -4
11 12 25 21 18 22 21 7 22 -32 0 -9 17 33 24 22 3 40 10 40 14 0 18 -34 107
-43 113 -5 4 -25 2 -44 -3 -39 -11 -58 -2 -30 14 17 9 17 11 2 34 -14 22 -14
24 0 24 19 0 13 26 -16 74 -19 31 -20 31 -106 32 -49 1 -104 5 -124 9 l-37 7
-7 -69 c-7 -73 -2 -92 41 -158 l27 -40 -36 34 c-19 18 -40 30 -46 27 -6 -4
-11 -1 -11 8 0 8 -7 13 -17 11 -10 -2 -23 -4 -30 -4 -6 -1 -11 -10 -10 -22 1
-16 7 -19 24 -16 29 5 30 -9 2 -16 -12 -3 -18 -10 -14 -17 8 -14 -51 -73 -68
-67 -8 2 -13 37 -15 101 l-3 98 47 -4 c45 -3 48 -2 70 37 30 53 37 107 21 179
-15 71 -33 86 -79 67 -18 -7 -50 -16 -71 -21 -21 -4 -45 -15 -55 -23 -21 -19
-47 -125 -40 -162 3 -14 -1 -30 -8 -36 -8 -6 -14 -9 -14 -6 0 3 -16 -1 -37 -9
-42 -18 -74 -53 -68 -74 3 -9 -4 -19 -18 -25 -27 -12 -38 -59 -11 -48 10 4 28
18 41 32 12 14 23 20 23 14 0 -7 7 -13 15 -13 8 0 15 -7 15 -15 0 -8 -5 -15
-11 -15 -8 0 -7 -6 2 -17 12 -15 12 -16 -3 -10 -22 8 -24 -9 -3 -21 25 -13 7
-45 -22 -39 -17 3 -33 -3 -51 -19 -17 -17 -29 -21 -36 -14 -19 19 -29 10 -11
-10 16 -17 16 -20 2 -26 -9 -3 -21 -2 -28 2 -7 4 -9 3 -5 -4 12 -21 -13 -22
-66 -5 -52 18 -53 19 -41 43 7 14 13 35 13 48 0 13 5 32 11 43 6 13 7 25 1 32
-5 7 -11 21 -14 33 -4 17 -1 20 22 16 42 -6 56 19 43 81 -9 44 -8 55 8 81 32
53 19 97 -38 130 -14 8 -224 38 -230 33 -11 -12 48 -89 99 -127 119 -91 131
-100 139 -100 10 0 12 -41 3 -64 -3 -9 -10 -13 -15 -10 -5 3 -7 10 -4 15 3 5
-1 6 -9 3 -9 -3 -13 -11 -10 -16 4 -6 -3 -5 -15 1 -18 10 -21 9 -21 -9 0 -12
-6 -20 -12 -19 -7 1 -20 1 -28 0 -13 -1 -13 -2 0 -11 13 -8 13 -10 -1 -10 -9
0 -19 3 -23 7 -11 12 -76 13 -76 2 0 -6 -10 -9 -22 -7 -23 3 -41 45 -51 122
-5 40 -3 42 33 21 14 -8 33 -14 44 -15 48 -1 -64 70 -135 85 -43 10 -75 28
-98 56 l-20 24 -1 -26 c0 -28 -33 -65 -48 -55 -12 7 -62 -42 -62 -60 0 -8 -7
-14 -15 -14 -10 0 -15 -11 -15 -35 0 -40 13 -44 42 -12 l20 22 -5 -22 c-3 -13
3 -31 14 -44 20 -23 17 -39 -6 -39 -8 0 -19 -9 -25 -20 -6 -11 -17 -20 -25
-20 -12 0 -15 -15 -15 -71 0 -70 0 -71 24 -65 13 3 26 2 28 -3 2 -5 31 -5 68
0 79 12 100 3 125 -53 17 -39 17 -42 0 -77 -10 -20 -20 -30 -22 -23 -7 18 -21
15 -28 -8 -3 -11 -10 -20 -15 -20 -4 0 -6 9 -3 20 6 22 -12 28 -21 8 -4 -10
-8 -10 -11 -2 -3 7 -15 10 -25 7 -12 -3 -20 0 -20 7 0 9 -7 7 -20 -5 -11 -10
-23 -16 -26 -13 -3 3 4 15 15 25 l21 20 -21 24 c-22 24 -22 24 -16 2 4 -17 1
-23 -11 -24 -11 0 -12 -2 -4 -6 21 -8 13 -23 -13 -23 -16 0 -25 -6 -25 -15 0
-18 17 -20 23 -2 2 6 8 9 12 5 5 -5 -2 -16 -14 -27 -19 -17 -22 -28 -19 -83 3
-54 6 -63 21 -60 9 2 17 -2 17 -8 0 -5 -9 -10 -20 -10 -19 0 -20 -7 -20 -100
0 -80 3 -100 14 -100 8 0 18 -5 22 -12 5 -8 0 -9 -14 -6 -15 4 -22 2 -22 -7 0
-8 8 -16 18 -18 14 -4 14 -5 -3 -6 -13 -1 -6 -7 20 -16 22 -8 49 -12 61 -9 12
3 25 1 28 -5 12 -19 28 -12 21 9 -4 12 -2 20 5 20 6 0 8 -5 5 -10 -3 -6 -3
-10 2 -10 14 1 58 28 56 34 -4 9 -3 40 1 35 2 -2 6 -16 10 -30 5 -23 2 -28
-22 -34 -36 -9 -52 -23 -45 -41 3 -8 1 -14 -5 -14 -5 0 -12 7 -16 15 -7 19
-40 19 -69 1 -19 -13 -24 -13 -36 1 -12 13 -11 14 8 8 12 -4 21 -2 21 4 0 6
-6 11 -12 12 -7 0 -20 2 -29 4 -12 2 -16 -7 -17 -37 -2 -38 -1 -40 23 -34 14
4 25 2 25 -4 0 -5 -11 -10 -25 -10 -21 0 -25 -5 -25 -29 0 -23 6 -32 28 -39
17 -7 21 -11 10 -11 -21 -1 -25 -31 -4 -31 31 0 29 79 -3 81 -12 0 -11 2 4 8
11 5 25 5 30 1 6 -4 32 -14 59 -23 49 -17 81 -13 55 5 -11 7 -10 8 4 4 10 -3
29 1 43 10 15 10 24 12 24 5 0 -6 -10 -16 -22 -21 -13 -5 -34 -18 -48 -29 -25
-20 -25 -21 -3 -21 12 0 24 4 27 9 3 5 25 7 49 4 33 -4 39 -2 27 7 -12 9 -9
11 18 6 24 -4 32 -2 32 9 0 11 5 12 26 5 33 -13 91 -13 99 0 8 13 55 13 75 0
13 -9 13 -10 0 -10 -111 -6 -181 -27 -137 -43 6 -2 8 -8 4 -13 -4 -5 -12 -2
-17 5 -7 12 -11 11 -26 -3 -14 -15 -15 -19 -4 -26 8 -5 22 -4 31 1 10 5 31 6
48 3 17 -4 31 -3 31 2 0 5 28 7 62 6 41 -3 57 -7 47 -13 -9 -6 9 -8 51 -7 l65
3 0 33 c1 30 22 59 35 45 3 -3 -1 -8 -7 -10 -7 -3 -13 -12 -13 -21 1 -15 2
-15 15 2 8 10 16 24 18 30 2 6 11 3 23 -9 16 -16 16 -18 2 -12 -12 4 -19 0
-23 -14 -4 -10 -13 -19 -22 -19 -8 0 -13 -6 -10 -12 2 -7 11 -11 18 -9 58 16
90 18 85 5 -9 -23 66 -18 92 6 23 21 52 27 52 9 0 -5 6 -7 13 -4 6 4 4 0 -6
-8 -16 -13 -11 -14 48 -14 41 0 65 4 65 11 0 7 3 7 8 -2 11 -16 64 -12 79 8
10 13 13 13 26 -4 8 -11 21 -16 33 -13 18 5 18 5 -3 12 -26 8 -21 30 8 32 33
3 51 24 44 51 -4 15 -2 21 5 17 5 -3 10 -17 10 -30 0 -12 7 -26 16 -29 9 -4
14 -9 11 -13 -4 -3 -13 0 -21 6 -16 13 -40 6 -31 -9 3 -4 -4 -6 -15 -3 -11 3
-20 1 -20 -5 0 -19 38 -23 74 -8 31 13 34 13 29 0 -4 -12 3 -10 28 5 40 25 57
27 35 5 -9 -8 -16 -21 -16 -27 0 -8 3 -8 9 1 4 8 14 13 22 12 8 -1 33 -2 56
-1 30 1 43 6 46 18 4 16 5 16 6 -1 1 -15 6 -17 29 -11 15 3 28 10 30 15 2 5 9
7 16 4 7 -3 13 2 13 12 0 9 -16 23 -36 32 -20 8 -31 17 -24 19 6 2 27 -6 47
-19 25 -16 34 -28 30 -40 -3 -10 -1 -18 5 -18 6 0 11 12 11 26 0 14 4 23 10
19 6 -3 10 -17 10 -31 0 -21 -4 -24 -39 -24 -22 0 -43 -4 -46 -10 -9 -15 71
-12 87 3 7 6 22 13 33 14 11 1 14 0 8 -3 -23 -10 -13 -24 17 -24 22 0 28 4 24
15 -4 10 0 15 15 15 12 0 20 -6 19 -12 -2 -8 9 -14 25 -16 40 -5 33 12 -14 34
-56 25 -34 30 24 5 38 -17 47 -18 57 -6 6 8 19 11 27 8 11 -4 9 1 -5 15 -12
12 -29 22 -38 22 -13 0 -14 3 -5 14 9 10 7 17 -6 27 -14 12 -16 12 -8 0 5 -9
4 -12 -3 -7 -6 4 -9 13 -5 21 4 11 0 14 -13 9 -16 -5 -16 -4 -4 5 8 5 24 8 35
6 27 -6 90 8 90 20 0 6 -20 13 -45 16 -38 5 -35 6 25 6 39 1 62 -1 53 -4 -18
-5 -25 -23 -9 -23 5 0 34 9 64 21 42 16 60 18 74 11 17 -10 17 -11 -2 -10 -26
2 -155 -61 -162 -79 -3 -8 -13 -11 -24 -8 -11 4 -19 2 -19 -4 0 -6 19 -11 43
-11 31 0 38 -3 27 -10 -13 -8 -13 -10 2 -10 9 0 24 -3 34 -7 13 -5 16 -3 11
10 -7 20 -9 19 62 23 35 1 49 -1 40 -7 -8 -5 -23 -9 -34 -10 -45 -2 37 -17
155 -29 67 -6 131 -15 143 -19 20 -7 19 -8 -7 -15 -15 -4 -31 -4 -36 -1 -6 4
-10 1 -10 -4 0 -7 34 -11 92 -11 89 0 118 12 38 15 -53 2 -64 15 -14 17 21 1
59 3 84 4 25 1 54 -1 65 -5 79 -32 117 -37 109 -18 -3 8 -35 19 -75 27 -39 6
-69 13 -67 15 2 2 26 6 53 9 61 7 119 17 123 21 2 2 -42 3 -97 3 -56 -1 -104
-5 -107 -10 -3 -4 0 -8 7 -8 7 0 10 -2 7 -5 -8 -9 -38 6 -32 16 5 9 -9 13 -35
9 -24 -3 -62 10 -56 20 3 6 -2 9 -12 8 -33 -2 -53 2 -53 12 0 6 9 10 20 10 11
0 20 -4 20 -8 0 -5 15 -7 33 -5 24 3 29 2 17 -6 -12 -9 -11 -11 8 -11 12 0 22
4 22 8 0 12 69 32 75 22 5 -8 46 -6 102 6 13 2 20 9 17 17 -3 8 3 20 12 28 12
9 15 10 10 2 -7 -12 11 -18 37 -14 5 1 6 -3 3 -8 -4 -5 2 -12 11 -15 10 -2 0
-3 -22 0 -22 2 -34 1 -27 -2 19 -9 14 -24 -7 -24 -11 0 -22 -4 -26 -9 -8 -14
14 -24 28 -12 8 6 18 6 27 1 8 -6 27 -10 43 -10 26 0 27 2 27 55 0 69 -16 80
-89 64 -28 -6 -57 -8 -64 -6 -6 3 -2 6 10 6 12 1 28 10 36 22 13 18 21 20 60
14 l45 -7 0 41 c1 23 -3 39 -9 36 -5 -4 -9 -1 -9 4 0 6 -7 11 -16 11 -8 0 -13
4 -10 9 3 5 15 7 26 4 20 -5 20 0 20 306 0 182 -4 311 -9 311 -5 0 -11 -5 -13
-12 -5 -15 -37 -19 -61 -6 -19 10 -19 7 -12 -76 7 -92 -1 -190 -16 -180 -5 3
-9 18 -9 35 0 16 -5 29 -11 29 -7 0 -9 11 -5 31 5 25 1 37 -22 60 -28 30 -27
30 -126 15 -13 -2 -17 43 -5 66 8 15 8 22 0 27 -8 5 -7 13 3 27 11 14 11 22 3
32 -8 10 -8 15 0 20 6 4 14 25 18 47 13 84 12 81 48 77 39 -4 81 14 132 60 46
40 65 86 65 159 0 65 -3 68 -59 43z m-614 -151 c-3 -10 -5 -4 -5 12 0 17 2 24
5 18 2 -7 2 -21 0 -30z m13 -33 c0 -5 -4 -10 -10 -10 -5 0 -10 5 -10 10 0 6 5
10 10 10 6 0 10 -4 10 -10z m-3 -52 c-3 -7 -5 -2 -5 12 0 14 2 19 5 13 2 -7 2
-19 0 -25z m25 -33 c4 -5 8 -20 8 -32 0 -13 5 -23 11 -23 8 0 7 -5 -1 -15 -19
-22 3 -44 25 -25 12 10 15 10 15 -4 0 -10 -9 -16 -25 -16 -15 0 -25 -5 -24
-12 0 -7 -2 -23 -6 -35 -6 -19 -15 -23 -49 -23 -22 0 -48 4 -55 9 -9 6 -22 6
-34 -1 -33 -17 -30 -1 6 44 19 24 46 66 60 94 26 51 51 65 69 39z m-1327 -75
c-10 -11 -21 -18 -23 -15 -3 3 3 12 14 20 27 20 30 18 9 -5z m1077 -105 c-6
-34 -12 -32 -12 6 0 16 4 28 9 25 4 -3 6 -17 3 -31z m-1792 15 c0 -5 -4 -10
-10 -10 -5 0 -10 5 -10 10 0 6 5 10 10 10 6 0 10 -4 10 -10z m1210 -78 c0 -15
4 -33 9 -41 14 -22 2 -49 -20 -44 -10 3 -17 8 -16 12 1 3 -8 16 -21 29 -12 12
-20 27 -17 32 11 19 14 50 4 55 -5 4 -7 11 -3 16 11 18 64 -31 64 -59z m210
39 c0 -5 -7 -12 -16 -15 -14 -5 -15 -4 -4 9 14 17 20 19 20 6z m-130 -11 c0
-5 -5 -10 -11 -10 -5 0 -7 5 -4 10 3 6 8 10 11 10 2 0 4 -4 4 -10z m-45 -20
c3 -5 2 -10 -4 -10 -5 0 -13 5 -16 10 -3 6 -2 10 4 10 5 0 13 -4 16 -10z
m1425 0 c0 -5 -4 -10 -10 -10 -5 0 -10 5 -10 10 0 6 5 10 10 10 6 0 10 -4 10
-10z m-1715 -20 c-3 -5 -14 -10 -23 -9 -14 0 -13 2 3 9 27 11 27 11 20 0z
m1125 -60 c12 -10 19 -40 10 -40 -6 0 -10 -9 -10 -19 0 -11 -5 -23 -12 -27 -7
-4 -8 -3 -4 5 4 6 0 14 -8 17 -9 3 -13 10 -10 15 3 5 10 7 15 4 5 -4 9 5 9 19
0 14 -4 28 -10 31 -5 3 -10 16 -9 28 0 21 1 21 12 -3 6 -14 14 -27 17 -30z
m-110 30 c0 -5 6 -7 14 -4 11 4 13 -6 12 -46 -1 -42 -6 -55 -26 -70 -32 -25
-41 -25 -47 0 -3 11 -11 20 -18 20 -21 0 -27 71 -8 92 17 19 73 25 73 8z
m-1060 -135 c0 -13 -3 -13 -20 -3 -11 7 -20 17 -20 23 0 5 -14 10 -31 10 -29
0 -30 0 -10 -17 28 -22 26 -30 -5 -18 -14 6 -30 8 -35 4 -5 -3 -9 -1 -9 5 0 5
17 24 38 41 l37 31 28 -31 c15 -17 27 -37 27 -45z m273 19 c-5 -13 -39 -25
-47 -17 -3 3 2 16 10 29 13 18 18 21 29 11 7 -6 10 -17 8 -23z m24 -36 c-3 -8
-6 -5 -6 6 -1 11 2 17 5 13 3 -3 4 -12 1 -19z m889 -5 c-7 -7 -26 7 -26 19 0
6 6 6 15 -2 9 -7 13 -15 11 -17z m-861 -13 c0 -17 -5 -30 -12 -30 -15 0 -15 5
-7 38 9 31 19 27 19 -8z m745 1 c0 -5 -11 -8 -24 -7 -13 0 -22 4 -19 9 6 10
43 9 43 -2z m138 -23 c18 -18 15 -23 -13 -24 -18 -2 -25 3 -25 17 0 21 20 25
38 7z m329 6 c-3 -3 -12 -4 -19 -1 -8 3 -5 6 6 6 11 1 17 -2 13 -5z m-447 -19
c-14 -7 -27 -11 -30 -9 -6 7 22 24 40 23 9 0 5 -6 -10 -14z m-1974 -8 c4 -4
-10 -7 -32 -7 -24 0 -34 3 -26 8 15 10 48 9 58 -1z m2309 1 c17 -1 48 1 70 5
35 7 38 6 23 -6 -20 -16 -14 -27 14 -27 10 0 18 -4 18 -10 0 -14 -84 -12 -99
3 -11 10 -14 10 -18 0 -3 -7 -15 -13 -27 -13 -12 0 -31 -6 -42 -14 -19 -14
-20 -12 -21 22 -1 47 3 53 30 47 12 -3 36 -6 52 -7z m-1082 -18 c4 -17 2 -18
-14 -9 -22 11 -25 29 -5 29 7 0 16 -9 19 -20z m689 0 c-10 -11 -25 -33 -33
-48 -7 -15 -15 -29 -16 -31 -4 -7 -33 21 -33 31 0 6 6 5 14 -1 12 -10 20 -5
42 28 15 23 31 41 36 41 5 0 0 -9 -10 -20z m-757 -17 c11 -7 17 -13 13 -13 -9
0 -78 30 -78 34 0 7 45 -7 65 -21z m929 -23 c2 -14 9 -24 15 -22 6 1 11 -11
11 -28 0 -30 -2 -31 -40 -28 -29 1 -39 6 -36 15 7 17 -12 17 -30 -1 -9 -10
-10 -17 -4 -21 6 -4 7 -11 4 -17 -4 -6 -10 -5 -15 3 -8 12 -11 11 -19 -1 -8
-13 -10 -12 -10 3 0 9 -2 17 -4 17 -2 0 -12 3 -21 6 -10 4 -15 2 -13 -7 2 -7
-6 -15 -17 -17 -11 -2 -23 -9 -27 -16 -5 -8 -8 -7 -8 2 0 8 -6 12 -12 9 -14
-4 -58 37 -58 54 0 14 -20 11 -38 -8 -16 -15 -15 -16 11 -9 15 3 27 4 27 2 0
-3 -18 -10 -40 -16 -22 -6 -38 -15 -35 -20 3 -5 1 -11 -5 -15 -5 -3 -10 1 -10
9 0 10 -6 13 -15 10 -17 -7 -20 13 -5 36 8 12 10 12 16 -3 6 -16 8 -16 18 5 6
13 18 24 26 24 8 1 21 2 28 3 6 0 12 9 12 18 0 14 3 13 21 -5 11 -12 17 -27
13 -33 -5 -8 3 -10 25 -7 24 4 31 1 27 -9 -3 -8 -1 -11 4 -8 6 3 7 17 4 31 -6
23 -4 24 18 19 16 -4 37 1 61 15 20 12 37 18 37 12 0 -5 -17 -18 -37 -28 -31
-15 -34 -19 -18 -22 10 -2 21 1 23 7 2 6 8 8 13 5 6 -3 21 -3 33 0 16 4 23 13
22 28 -1 17 4 22 18 20 14 -3 17 1 12 15 -5 12 -4 15 3 8 6 -6 12 -22 15 -35z
m-1324 10 c0 -5 -5 -10 -11 -10 -5 0 -7 5 -4 10 3 6 8 10 11 10 2 0 4 -4 4
-10z m373 -35 c-3 -9 -8 -14 -10 -11 -3 3 -2 9 2 15 9 16 15 13 8 -4z m367
-20 c6 3 7 -1 4 -9 -3 -9 -14 -16 -23 -16 -14 0 -14 2 -1 10 10 6 11 10 3 10
-7 0 -13 10 -12 23 l0 22 10 -23 c5 -13 13 -21 19 -17z m890 22 c0 -5 -6 -14
-12 -21 -15 -15 -48 -28 -48 -19 0 3 8 12 18 19 15 12 11 14 -33 15 -27 1 -54
1 -58 0 -5 -1 -6 3 -2 9 8 13 135 10 135 -3z m-1216 -6 c3 -5 17 -8 31 -8 14
0 29 -4 33 -7 8 -9 -17 -26 -38 -26 -12 0 -12 2 -2 9 10 6 5 10 -17 14 -17 4
-31 11 -31 17 0 12 17 13 24 1z m376 -19 c0 -8 -38 -52 -45 -52 -2 0 3 14 11
30 14 28 34 41 34 22z m753 -9 c-7 -2 -21 -2 -30 0 -10 3 -4 5 12 5 17 0 24
-2 18 -5z m-2281 -25 c-7 -7 -12 -8 -12 -2 0 14 12 26 19 19 2 -3 -1 -11 -7
-17z m2212 7 c-4 -8 -10 -12 -15 -9 -11 6 -2 24 11 24 5 0 7 -7 4 -15z m313
-22 c-3 -10 -5 -4 -5 12 0 17 2 24 5 18 2 -7 2 -21 0 -30z m-242 11 c9 3 23
-1 32 -10 14 -13 13 -14 -13 -9 -48 11 -54 14 -54 27 0 10 3 9 9 -1 5 -8 16
-11 26 -7z m78 -1 c-7 -2 -21 -2 -30 0 -10 3 -4 5 12 5 17 0 24 -2 18 -5z
m-308 -21 c-3 -3 -11 0 -18 7 -9 10 -8 11 6 5 10 -3 15 -9 12 -12z m-295 -2
c0 -13 -11 -13 -30 0 -12 8 -11 10 8 10 12 0 22 -4 22 -10z m50 -5 c0 -8 -4
-15 -10 -15 -5 0 -7 7 -4 15 4 8 8 15 10 15 2 0 4 -7 4 -15z m137 -24 c17 -7
41 -10 52 -6 16 5 20 3 15 -9 -5 -12 1 -16 27 -18 l34 -1 -33 -4 c-24 -3 -32
-9 -28 -18 3 -8 1 -17 -4 -20 -9 -5 -15 23 -11 47 0 4 -6 5 -15 1 -9 -3 -19
-2 -23 3 -3 5 -18 15 -33 21 -16 7 -28 18 -28 25 0 9 3 9 8 2 4 -5 21 -16 39
-23z m288 9 c3 -5 -1 -10 -10 -10 -9 0 -13 5 -10 10 3 6 8 10 10 10 2 0 7 -4
10 -10z m304 -40 c1 -13 0 -13 -9 0 -5 8 -9 24 -9 35 l0 20 9 -20 c5 -11 9
-27 9 -35z m-630 4 l23 -26 -33 7 c-50 11 -111 8 -120 -7 -6 -8 -9 -9 -9 -2 0
7 -10 12 -22 12 -13 0 -41 7 -63 16 l-40 17 40 -6 c22 -3 58 -9 79 -12 30 -5
37 -3 31 7 -5 8 -2 11 11 7 11 -3 35 -8 54 -12 33 -6 34 -5 16 10 -15 11 -16
15 -5 15 9 0 26 -12 38 -26z m342 -11 c12 -16 12 -17 -1 -7 -8 6 -22 14 -30
17 -13 5 -12 6 1 6 9 1 23 -7 30 -16z m358 -38 l0 -20 -9 20 c-5 11 -9 27 -9
35 -1 13 0 13 9 0 5 -8 9 -24 9 -35z m-1559 15 c0 -5 -5 -10 -11 -10 -5 0 -7
5 -4 10 3 6 8 10 11 10 2 0 4 -4 4 -10z m796 1 c-3 -5 6 -12 22 -16 25 -7 25
-8 7 -15 -18 -8 -18 -9 5 -10 21 -1 18 -4 -15 -16 -22 -7 -48 -19 -59 -25 -12
-7 -22 -7 -28 -1 -7 7 3 14 30 21 38 11 48 28 29 47 -10 11 -8 24 4 24 5 0 8
-4 5 -9z m709 -1 c3 -5 1 -10 -4 -10 -6 0 -11 5 -11 10 0 6 2 10 4 10 3 0 8
-4 11 -10z m-738 -6 c-3 -3 -12 -4 -19 -1 -8 3 -5 6 6 6 11 1 17 -2 13 -5z
m113 -25 c0 -14 -17 -10 -23 5 -4 10 -1 13 9 9 7 -3 14 -9 14 -14z m-100 7 c0
-2 -11 -6 -25 -8 -14 -3 -25 -1 -25 3 0 5 11 9 25 9 14 0 25 -2 25 -4z m-969
-52 c7 -25 18 -48 26 -51 12 -5 12 -7 1 -14 -11 -7 -10 -11 2 -19 10 -6 11
-10 3 -10 -7 0 -10 -7 -6 -17 4 -11 3 -14 -5 -9 -7 4 -12 18 -12 31 0 13 -4
26 -8 29 -4 2 -9 19 -10 36 -1 18 -7 41 -13 51 -6 13 -6 19 1 19 5 0 15 -21
21 -46z m1687 -15 c1 -33 -18 -39 -39 -12 -12 15 -12 16 1 8 12 -6 13 -5 3 6
-7 7 -13 21 -13 31 0 15 4 16 24 7 16 -8 23 -20 24 -40z m-1494 25 c3 -9 2
-12 -5 -9 -12 8 -49 -23 -49 -41 0 -7 -4 -16 -10 -19 -11 -7 -2 23 12 42 6 8
2 13 -14 16 -18 3 -16 5 9 6 17 0 35 6 38 11 8 14 12 13 19 -6z m681 -4 c-3
-5 -16 -10 -28 -9 -21 0 -21 1 -2 9 28 12 37 12 30 0z m-1260 -21 c27 -6 9 -7
-55 -3 -52 3 -111 9 -130 13 -46 11 131 1 185 -10z m459 13 c3 -5 6 -29 8 -55
2 -26 6 -47 11 -47 4 0 7 7 7 15 0 8 4 15 9 15 5 0 -1 -27 -15 -60 -26 -65
-31 -126 -11 -133 6 -2 9 -8 5 -12 -13 -13 -25 5 -32 46 l-7 41 -19 -22 c-10
-12 -20 -26 -22 -32 -2 -5 -21 -14 -43 -18 -22 -5 -52 -12 -66 -15 -19 -5 -26
-3 -26 9 0 11 5 12 17 6 10 -5 22 -5 31 2 11 8 11 9 -3 4 -10 -3 -18 -1 -18 5
0 7 11 8 30 4 16 -3 36 -2 45 3 15 8 15 10 0 22 -10 8 -34 14 -54 13 l-36 -2
40 10 c35 9 41 7 57 -13 9 -13 18 -21 20 -18 23 35 27 52 18 75 -8 21 -7 25 9
25 14 0 18 -5 14 -20 -7 -27 3 -25 22 4 15 23 12 63 -11 139 -5 17 10 24 20 9z
m-977 -8 c-3 -3 -12 -4 -19 -1 -8 3 -5 6 6 6 11 1 17 -2 13 -5z m52 3 c-2 -1
-15 -11 -29 -22 -15 -12 -20 -14 -12 -4 6 9 10 18 7 20 -2 3 5 6 17 6 11 1 19
1 17 0z m58 -3 c-3 -3 -12 -4 -19 -1 -8 3 -5 6 6 6 11 1 17 -2 13 -5z m2038
-14 c10 -11 15 -20 11 -20 -4 0 -16 9 -28 20 -12 11 -17 20 -11 20 5 0 18 -9
28 -20z m515 5 c0 -8 -4 -15 -8 -15 -5 0 -9 7 -9 15 0 8 4 15 9 15 4 0 8 -7 8
-15z m-1390 -2 c0 -5 -5 -15 -10 -23 -8 -12 -10 -11 -10 8 0 12 5 22 10 22 6
0 10 -3 10 -7z m530 3 c0 -2 -20 -13 -45 -25 -55 -26 -87 -28 -78 -5 4 11 8
12 13 4 5 -9 18 -6 46 9 36 19 64 26 64 17z m-1510 -16 c0 -5 -2 -10 -4 -10
-3 0 -8 5 -11 10 -3 6 -1 10 4 10 6 0 11 -4 11 -10z m333 3 c-13 -2 -33 -2
-45 0 -13 2 -3 4 22 4 25 0 35 -2 23 -4z m60 0 c-7 -2 -19 -2 -25 0 -7 3 -2 5
12 5 14 0 19 -2 13 -5z m44 1 c-3 -3 -12 -4 -19 -1 -8 3 -5 6 6 6 11 1 17 -2
13 -5z m153 -4 c0 -5 -4 -10 -10 -10 -5 0 -10 5 -10 10 0 6 5 10 10 10 6 0 10
-4 10 -10z m190 -4 c0 -3 -4 -8 -10 -11 -5 -3 -10 -1 -10 4 0 6 5 11 10 11 6
0 10 -2 10 -4z m-866 -37 c-8 -14 -34 -10 -34 5 0 9 7 12 20 9 11 -3 17 -9 14
-14z m630 6 c-6 -16 -24 -21 -24 -7 0 11 11 22 21 22 5 0 6 -7 3 -15z m-114 2
c0 -2 -12 -14 -27 -28 -20 -17 -23 -18 -10 -3 9 11 14 24 10 27 -3 4 1 7 10 7
10 0 17 -1 17 -3z m350 -1 c0 -2 -7 -7 -16 -10 -8 -3 -12 -2 -9 4 6 10 25 14
25 6z m1500 -6 c0 -5 -5 -10 -11 -10 -5 0 -7 5 -4 10 3 6 8 10 11 10 2 0 4 -4
4 -10z m-1752 -30 c3 -9 -1 -11 -13 -6 -11 4 -25 0 -36 -10 -27 -24 -24 -34
10 -34 17 0 33 -4 36 -10 7 -11 -45 -8 -63 4 -6 4 -28 -9 -48 -28 -20 -19 -44
-34 -53 -34 -9 0 -24 -3 -33 -7 -10 -4 -18 -3 -18 3 0 5 18 17 40 26 22 9 40
20 40 26 0 14 -13 13 -28 -2 -8 -8 -12 -8 -12 -1 0 6 7 13 15 17 35 13 10 21
-63 20 -96 -1 -110 -5 -52 -14 l45 -7 -42 -1 c-23 -1 -45 3 -48 8 -10 17 18
35 55 36 19 0 44 4 55 8 16 6 17 6 5 -3 -11 -8 -3 -11 37 -11 28 0 55 5 58 10
3 6 12 10 18 9 9 0 8 -2 -1 -6 -13 -5 -7 -23 8 -23 5 0 21 11 36 25 29 27 45
28 52 5z m57 -2 c-16 -4 -31 -5 -33 -3 -8 7 42 23 53 17 5 -3 -4 -9 -20 -14z
m249 7 c11 -8 15 -15 10 -15 -6 0 -19 7 -30 15 -10 8 -14 14 -9 14 6 0 19 -6
29 -14z m920 0 c-5 -12 8 -14 73 -14 96 1 107 -1 65 -11 -32 -7 -102 -5 -149
5 -27 6 -30 22 -5 28 9 3 18 5 19 6 1 0 0 -6 -3 -14z m496 11 c0 -9 -39 -13
-51 -5 -10 6 -4 9 19 9 17 0 32 -2 32 -4z m-2416 -15 c-2 -3 6 -11 18 -19 18
-10 19 -12 3 -7 -11 4 -28 10 -37 12 -24 7 -23 22 2 20 10 -1 17 -3 14 -6z
m292 -4 c11 -11 -29 -8 -46 3 -12 8 -9 10 12 7 15 -1 30 -6 34 -10z m1477 6
c-7 -2 -19 -2 -25 0 -7 3 -2 5 12 5 14 0 19 -2 13 -5z m52 -3 c3 -5 1 -10 -4
-10 -6 0 -11 5 -11 10 0 6 2 10 4 10 3 0 8 -4 11 -10z m370 0 c-3 -5 -12 -10
-18 -10 -7 0 -6 4 3 10 19 12 23 12 15 0z m-1848 -6 c-3 -3 -12 -4 -19 -1 -8
3 -5 6 6 6 11 1 17 -2 13 -5z m554 -40 c-5 -16 -10 -21 -10 -12 -1 18 10 51
15 45 2 -1 -1 -16 -5 -33z m-945 -12 c-9 -2 -24 2 -33 10 -13 10 -17 10 -20 1
-3 -7 -14 -13 -24 -13 -11 0 -17 5 -14 10 4 6 11 8 16 5 5 -3 6 1 3 9 -5 14 0
14 41 -2 27 -9 40 -18 31 -20z m287 24 c18 -2 42 1 55 5 17 7 22 5 23 -9 0
-10 3 -12 6 -4 7 17 30 15 30 -2 0 -8 -11 -16 -24 -19 -12 -2 -23 0 -23 4 0 5
-11 9 -25 9 -14 0 -25 -4 -25 -10 0 -16 -27 -12 -67 10 -20 10 -40 17 -45 14
-4 -3 -8 0 -8 6 0 7 12 9 35 4 20 -3 50 -7 68 -8z m891 -7 c-2 -4 3 -9 11 -13
8 -3 15 -10 15 -15 0 -12 -47 5 -68 24 -11 10 -7 12 16 11 17 -1 28 -4 26 -7z
m-194 -14 c0 -8 -4 -15 -9 -15 -5 0 -11 7 -15 15 -3 9 0 15 9 15 8 0 15 -7 15
-15z m94 7 c2 -4 -4 -8 -15 -8 -10 0 -19 4 -19 8 0 4 6 8 14 8 8 0 17 -4 20
-8z m969 1 c-7 -2 -19 -2 -25 0 -7 3 -2 5 12 5 14 0 19 -2 13 -5z m427 -3 c-8
-5 -24 -9 -35 -9 -16 1 -16 2 5 9 35 11 48 11 30 0z m-2295 -20 c-28 -12 -37
-12 -30 0 3 6 16 10 28 9 21 0 21 -1 2 -9z m1755 0 c-20 -13 -33 -13 -25 0 3
6 14 10 23 10 15 0 15 -2 2 -10z m-1810 -10 c0 -5 -5 -10 -11 -10 -5 0 -7 5
-4 10 3 6 8 10 11 10 2 0 4 -4 4 -10z m282 -10 l22 -20 -25 0 c-18 0 -25 5
-25 20 0 11 2 20 4 20 1 0 12 -9 24 -20z m48 10 c0 -13 -11 -13 -30 0 -12 8
-11 10 8 10 12 0 22 -4 22 -10z m373 3 c-7 -2 -19 -2 -25 0 -7 3 -2 5 12 5 14
0 19 -2 13 -5z m260 0 c-7 -2 -19 -2 -25 0 -7 3 -2 5 12 5 14 0 19 -2 13 -5z
m910 0 c-7 -2 -21 -2 -30 0 -10 3 -4 5 12 5 17 0 24 -2 18 -5z m-1478 -20 c-4
-10 -7 -26 -7 -35 1 -22 -5 -23 -24 -4 -11 11 -11 16 -1 20 6 3 1 5 -13 5 -45
-2 -46 2 -5 16 55 18 58 18 50 -2z m443 4 c8 -10 7 -13 -7 -14 -10 -1 -18 5
-18 13 0 17 11 18 25 1z m-678 -7 c18 -12 2 -12 -25 0 -13 6 -15 9 -5 9 8 0
22 -4 30 -9z m1690 6 c0 -3 -4 -8 -10 -11 -5 -3 -10 -1 -10 4 0 6 5 11 10 11
6 0 10 -2 10 -4z m158 -13 c16 -16 16 -16 -3 -8 -11 5 -37 8 -57 7 -21 -1 -38
3 -38 8 0 17 80 11 98 -7z m-1978 -3 c18 -12 2 -12 -25 0 -13 6 -15 9 -5 9 8
0 22 -4 30 -9z m1485 -10 c25 -8 22 -9 -20 -4 -27 3 -57 10 -65 15 -19 12 41
4 85 -11z m385 16 c0 -2 -7 -7 -16 -10 -8 -3 -12 -2 -9 4 6 10 25 14 25 6z
m155 -6 c3 -5 1 -10 -4 -10 -6 0 -11 5 -11 10 0 6 2 10 4 10 3 0 8 -4 11 -10z
m-1142 -7 c-7 -2 -19 -2 -25 0 -7 3 -2 5 12 5 14 0 19 -2 13 -5z m274 1 c-3
-3 -12 -4 -19 -1 -8 3 -5 6 6 6 11 1 17 -2 13 -5z m-441 -39 c0 -31 -3 -35
-25 -34 -17 1 -20 3 -8 6 10 3 17 14 17 27 0 18 7 36 15 36 0 0 1 -16 1 -35z
m150 5 c-22 -10 -42 -17 -47 -15 -4 3 -15 -5 -23 -17 -9 -12 -16 -18 -16 -13
1 20 28 45 48 45 11 0 24 5 27 10 3 6 16 10 28 10 16 0 12 -5 -17 -20z m554
-9 c-7 -14 -20 -21 -38 -20 -24 0 -25 1 -7 9 12 4 27 15 34 24 18 22 26 13 11
-13z m510 19 c13 -8 13 -10 -2 -10 -9 0 -20 5 -23 10 -8 13 5 13 25 0z m195
-8 c17 -6 22 -11 13 -11 -10 -1 -18 -7 -18 -13 -1 -8 -7 -5 -15 6 -18 24 -106
30 -97 6 5 -13 3 -13 -12 -1 -10 9 -13 17 -7 21 15 8 100 3 136 -8z m-1611 -7
c25 -19 10 -35 -24 -24 l-25 7 25 1 c24 2 24 2 6 16 -11 8 -16 15 -10 15 5 0
18 -7 28 -15z m266 5 c0 -5 -4 -10 -9 -10 -6 0 -13 5 -16 10 -3 6 1 10 9 10 9
0 16 -4 16 -10z m271 -13 c-10 -9 -11 -8 -5 6 3 10 9 15 12 12 3 -3 0 -11 -7
-18z m186 17 c-3 -3 -12 -4 -19 -1 -8 3 -5 6 6 6 11 1 17 -2 13 -5z m-1037
-14 c13 -9 13 -10 0 -10 -8 0 -22 5 -30 10 -13 9 -13 10 0 10 8 0 22 -5 30
-10z m123 3 c-7 -2 -19 -2 -25 0 -7 3 -2 5 12 5 14 0 19 -2 13 -5z m1724 -9
c-3 -3 -12 -4 -19 -1 -8 3 -5 6 6 6 11 1 17 -2 13 -5z m-1587 -14 c0 -5 -5
-10 -11 -10 -5 0 -7 5 -4 10 3 6 8 10 11 10 2 0 4 -4 4 -10z m-197 -7 c-7 -2
-19 -2 -25 0 -7 3 -2 5 12 5 14 0 19 -2 13 -5z m97 -3 c0 -5 -19 -9 -42 -9
l-43 2 40 7 c22 4 41 8 43 9 1 0 2 -3 2 -9z"/>
<path d="M2350 630 c0 -5 4 -10 9 -10 6 0 13 5 16 10 3 6 -1 10 -9 10 -9 0
-16 -4 -16 -10z"/>
<path d="M2157 547 c-4 -10 2 -13 19 -9 13 2 24 8 24 13 0 14 -37 10 -43 -4z"/>
<path d="M765 180 c-3 -5 -4 -14 0 -20 8 -13 35 -1 35 16 0 16 -26 19 -35 4z"/>
<path d="M2757 1293 c-11 -10 -8 -53 3 -53 6 0 10 14 10 30 0 31 -2 35 -13 23z"/>
<path d="M2270 1070 c0 -5 7 -7 15 -4 8 4 15 8 15 10 0 2 -7 4 -15 4 -8 0 -15
-4 -15 -10z"/>
<path d="M2345 1052 c-2 -3 -2 -8 1 -13 5 -9 34 -1 34 10 0 8 -27 10 -35 3z"/>
<path d="M2310 1030 c0 -5 5 -10 11 -10 5 0 7 5 4 10 -3 6 -8 10 -11 10 -2 0
-4 -4 -4 -10z"/>
<path d="M2210 1020 c0 -5 5 -10 10 -10 6 0 10 5 10 10 0 6 -4 10 -10 10 -5 0
-10 -4 -10 -10z"/>
<path d="M0 1016 c0 -2 7 -7 16 -10 8 -3 12 -2 9 4 -6 10 -25 14 -25 6z"/>
<path d="M625 1000 c-3 -5 -2 -10 4 -10 5 0 13 5 16 10 3 6 2 10 -4 10 -5 0
-13 -4 -16 -10z"/>
<path d="M1550 905 c0 -8 5 -15 10 -15 6 0 10 7 10 15 0 8 -4 15 -10 15 -5 0
-10 -7 -10 -15z"/>
<path d="M1880 142 c-8 -4 -16 -16 -17 -27 -1 -11 0 -14 3 -7 3 6 14 12 24 12
10 0 20 7 24 15 6 16 -8 18 -34 7z"/>
<path d="M2505 110 c3 -5 8 -10 11 -10 2 0 4 5 4 10 0 6 -5 10 -11 10 -5 0 -7
-4 -4 -10z"/>
<path d="M2555 110 c-4 -6 10 -10 35 -10 25 0 39 4 35 10 -3 6 -19 10 -35 10
-16 0 -32 -4 -35 -10z"/>
<path d="M75 99 c-10 -15 3 -25 16 -12 7 7 7 13 1 17 -6 3 -14 1 -17 -5z"/>
<path d="M2010 74 c0 -8 10 -19 23 -24 33 -13 0 -11 -65 4 -32 8 -58 11 -58 6
0 -11 27 -20 63 -20 25 0 29 -3 17 -11 -12 -8 -10 -10 10 -8 43 2 57 0 43 -9
-7 -5 22 -9 65 -10 84 -2 82 10 -3 23 -42 7 -46 9 -25 15 23 6 22 7 -13 14
-21 4 -35 11 -32 15 3 5 -2 11 -10 15 -9 3 -15 0 -15 -10z"/>
<path d="M85 70 c-4 -6 8 -10 29 -10 20 0 36 5 36 10 0 6 -13 10 -29 10 -17 0
-33 -4 -36 -10z"/>
<path d="M329 52 c-17 -20 -21 -52 -6 -52 5 0 7 7 3 15 -3 8 -2 15 2 15 4 0
13 9 20 20 15 25 2 26 -19 2z"/>
<path d="M2678 53 c7 -3 16 -2 19 1 4 3 -2 6 -13 5 -11 0 -14 -3 -6 -6z"/>
<path d="M2730 49 c0 -5 9 -9 20 -9 11 0 20 2 20 4 0 2 -9 6 -20 9 -11 3 -20
1 -20 -4z"/>
<path d="M100 28 c-25 -28 -18 -36 14 -14 22 14 25 14 20 1 -5 -12 5 -15 55
-15 34 0 61 4 61 9 0 44 -113 58 -150 19z m117 -4 c-3 -3 -12 -4 -19 -1 -8 3
-5 6 6 6 11 1 17 -2 13 -5z"/>
<path d="M30 31 c-32 -6 -33 -7 -12 -13 26 -7 52 -1 52 13 0 5 -1 8 -2 8 -2
-1 -19 -5 -38 -8z"/>
<path d="M1923 23 c-24 -9 -13 -23 18 -23 20 0 29 4 27 13 -5 13 -26 18 -45
10z"/>
<path d="M2702 19 c5 -16 68 -25 68 -10 0 6 -6 11 -12 11 -7 0 -24 3 -37 7
-18 4 -23 2 -19 -8z"/>
<path d="M270 10 c0 -5 4 -10 9 -10 6 0 13 5 16 10 3 6 -1 10 -9 10 -9 0 -16
-4 -16 -10z"/>
<path d="M2210 10 c0 -5 5 -10 10 -10 6 0 10 5 10 10 0 6 -4 10 -10 10 -5 0
-10 -4 -10 -10z"/>
</g>
</svg>
